<svg xmlns="http://www.w3.org/2000/svg" width="97.625" height="109.651" viewBox="0 0 97.625 109.651">
    <defs>
        <linearGradient id="linear-gradient" x1=".133" x2=".83" y1=".316" y2=".709" gradientUnits="objectBoundingBox">
            <stop offset="0" stop-color="#3f3c8d"/>
            <stop offset="1" stop-color="#2c297b"/>
        </linearGradient>
        <style>
            .cls-1{fill:#0a2034}
        </style>
    </defs>
    <g id="Group_5840" transform="translate(1989.549 1427.065)">
        <path id="Path_5916" d="M-1834.7-1265.569c-.308-.039-.616-.091-.925-.114a32.957 32.957 0 0 1-6.171-1.084 50.434 50.434 0 0 1-10.781-4.413 6.131 6.131 0 0 1-.855-.529c.161.04.324.072.482.122a7.791 7.791 0 0 0 2.236.312 20.967 20.967 0 0 0 9.92-2.307c1.252-.63 2.465-1.335 3.687-2.021q14.192-7.965 28.38-15.938a19.249 19.249 0 0 0 5.551-4.549 16.2 16.2 0 0 0 3.385-7.29 21.931 21.931 0 0 0 .378-4.217c0-12.769.025-25.539-.015-38.309a27.258 27.258 0 0 0-1.784-9.981 18.294 18.294 0 0 0-2.612-4.673 1.327 1.327 0 0 1-.238-.412c.059.038.121.073.178.115 2.63 1.907 5.251 3.825 7.761 5.889a44.576 44.576 0 0 1 4.287 4.034 32.608 32.608 0 0 1 4.064 5.312 18.3 18.3 0 0 1 2.257 5.377 10.013 10.013 0 0 1 .307 2.109 1.531 1.531 0 0 0 .055.276v9.133a2.587 2.587 0 0 0-.047.347v15.732a2.039 2.039 0 0 0 .047.31v12.242a2 2 0 0 0-.048.308 17.588 17.588 0 0 1-.27 3.026 16.692 16.692 0 0 1-3.454 7.745 20.579 20.579 0 0 1-5.887 4.9q-12.372 7.107-24.756 14.19c-1.16.665-2.312 1.348-3.5 1.951a22.058 22.058 0 0 1-8.335 2.289c-.322.025-.641.076-.962.115z" class="cls-1" transform="translate(-106.766 -51.844)"/>
        <path id="Path_5917" fill="url(#linear-gradient)" d="M-1935.718-1425.516V-1414.863q0 13.344-.007 26.687c0 4.048.016 8.1.023 12.145 0 .82.019 1.641 0 2.461a20.632 20.632 0 0 1-1.8 8.128 18.668 18.668 0 0 1-5.564 6.924 27.719 27.719 0 0 1-3.277 2.2q-14.919 8.624-29.84 17.244a24.818 24.818 0 0 1-6.382 2.621 15.612 15.612 0 0 1-6.772.174 2.1 2.1 0 0 1-.21-.066v-.352-25.035q0-9.894.024-19.788a21.586 21.586 0 0 1 1.63-8.365 18.943 18.943 0 0 1 6.467-8.01c.968-.71 2.009-1.3 3.033-1.918q19.154-11.542 38.314-23.076l3.908-2.356c.128-.081.257-.155.453-.271zm-33.854 73.47l.041.045c.1-.054.207-.105.308-.163 1.364-.787 2.725-1.579 4.092-2.36a.9.9 0 0 0 .424-.492q2.869-7.476 5.753-14.945c.044-.115.094-.229.171-.416.992 3.539 1.938 7.006 2.92 10.5l4.2-2.429c-.033-.133-.054-.227-.079-.32q-2.02-7.546-4.045-15.091a.946.946 0 0 1 .037-.623q1.337-3.489 2.658-6.984c.044-.117.082-.237.149-.431-1.469.831-2.858 1.656-4.288 2.464l-1.856-6.941c-.128.071-.222.121-.314.174-1.242.717-2.483 1.437-3.729 2.147a.817.817 0 0 0-.38.45q-5.953 15.527-11.916 31.049l-3.713 9.664c-.039.1-.07.207-.125.371.174-.1.278-.15.38-.209 1.354-.782 2.706-1.568 4.065-2.342a.946.946 0 0 0 .442-.519q5.959-15.438 11.928-30.872c.171-.441.345-.881.544-1.387.049.151.082.237.106.326.449 1.632.894 3.265 1.35 4.9a.839.839 0 0 1-.03.561q-3.927 10.293-7.846 20.587zm22.619-55.72a3.533 3.533 0 0 0-.222-1.366 1.587 1.587 0 0 0-1.868-1.023 3.42 3.42 0 0 0-1.333.555 6.767 6.767 0 0 0-3.06 5.323 3.087 3.087 0 0 0 .317 1.7 1.474 1.474 0 0 0 1.224.837 2.489 2.489 0 0 0 1.286-.249 5.512 5.512 0 0 0 1.893-1.434 6.806 6.806 0 0 0 1.763-4.342zm-7.774 1.622a1.439 1.439 0 0 0-1.13-.125 4.186 4.186 0 0 0-1.479.707 7.138 7.138 0 0 0-2.466 3.178 5.78 5.78 0 0 0-.445 2.4 2.96 2.96 0 0 0 .344 1.4 1.458 1.458 0 0 0 1.3.776 2.751 2.751 0 0 0 1.307-.314 8.189 8.189 0 0 0 2.525-1.99.644.644 0 0 0 .171-.465c-.009-.992-.007-1.985-.01-2.979 0-.072-.01-.143-.02-.266l-2.123 1.225v.779c.486-.23.9-.537 1.415-.767 0 .719 0 1.375-.006 2.031a.43.43 0 0 1-.122.249 5.909 5.909 0 0 1-1.531 1.232 2.457 2.457 0 0 1-.977.32 1.163 1.163 0 0 1-1.139-.533 1.987 1.987 0 0 1-.3-.846 4.211 4.211 0 0 1 .207-1.946 5.186 5.186 0 0 1 2.207-2.9 1.728 1.728 0 0 1 1.736-.2zm-16.381 15.753l.051.052c.194-.112.385-.231.584-.333a.467.467 0 0 0 .244-.319c.162-.559.34-1.114.5-1.674a.552.552 0 0 1 .289-.36c.881-.5 1.756-1.012 2.634-1.518.073-.042.151-.074.244-.118l.635 1.363.863-.5-2.655-5.6c-.129.07-.227.134-.334.179a.86.86 0 0 0-.5.619c-.621 2.042-1.264 4.077-1.9 6.114q-.329 1.047-.654 2.095zm-2.969-2.925a3.556 3.556 0 0 1-.366.2.749.749 0 0 0-.46.6c-.267 1.154-.56 2.3-.849 3.453-.023.09-.017.2-.135.292l-.921-2.976-.758.443 1.346 3.943a5.268 5.268 0 0 1 .469-.266.526.526 0 0 0 .308-.416c.22-.945.453-1.887.682-2.829.084-.344.17-.687.255-1.03l.056-.005 1.146 2.857c.16-.089.286-.171.421-.232a.57.57 0 0 0 .331-.437c.374-1.595.76-3.186 1.141-4.78.028-.118.048-.239.081-.407-.21.119-.365.216-.528.3a.444.444 0 0 0-.255.343c-.187.886-.386 1.769-.582 2.653-.087.394-.177.787-.266 1.181l-.06.006zm9.818-.954l.363-.2 1.906-1.1c.374-.216.75-.427 1.119-.65.076-.046.175-.126.182-.2a6.426 6.426 0 0 0 0-.7l-2.819 1.623-.035-6.322-.717.414z" transform="translate(0 -1.215)"/>
        <path id="Path_5918" d="M-1916.819-1427.065c.045.027.091.05.133.08 2.628 1.854 5.25 3.719 7.727 5.772 1.146.949 2.225 1.979 3.326 2.981.238.217.44.475.666.707a34.642 34.642 0 0 1 4.5 5.666 20.366 20.366 0 0 1 2.6 5.828 15.065 15.065 0 0 1 .478 3.746c0 1.878-.015 3.756-.019 5.634q-.016 7.675-.027 15.349 0 3.5.014 6.995c.007 1.813.033 3.626.03 5.44 0 1.985 0 3.971-.053 5.955a18.641 18.641 0 0 1-2.4 8.907 19.088 19.088 0 0 1-5.488 5.953 38.78 38.78 0 0 1-3.513 2.19q-13.482 7.743-26.962 15.492a23.952 23.952 0 0 1-8.4 2.96 26.912 26.912 0 0 1-5.649.24 37.817 37.817 0 0 1-10.826-2.389 58.555 58.555 0 0 1-8.209-3.8.455.455 0 0 1-.2-.186c.138.037.279.067.415.11a8.515 8.515 0 0 0 2.426.344 22.005 22.005 0 0 0 10.447-2.448c1.355-.686 2.67-1.455 4-2.2q14.819-8.337 29.634-16.681a20.191 20.191 0 0 0 5.925-4.9 17.037 17.037 0 0 0 3.453-7.51 22.178 22.178 0 0 0 .4-4.538c-.012-1.155 0-2.31 0-3.465 0-12.328.023-24.655-.015-36.982a28.507 28.507 0 0 0-1.866-10.359 21.481 21.481 0 0 0-1.99-3.881c-.2-.316-.4-.638-.6-.958z" class="cls-1" transform="translate(-16.053)"/>
        <path id="Path_5919" fill="#353283" d="M-1813.489-1348.168a5.434 5.434 0 0 1-2.043 4.06 2.868 2.868 0 0 1-1.085.561 1.257 1.257 0 0 1-1.607-.825 3.161 3.161 0 0 1-.115-1.661 5.5 5.5 0 0 1 1.58-3.088 3.6 3.6 0 0 1 1.14-.784 2.42 2.42 0 0 1 .557-.159 1.179 1.179 0 0 1 1.311.67 2.666 2.666 0 0 1 .262 1.226z" transform="translate(-134.252 -60.384)"/>
        <path id="Path_5920" fill="#363385" d="M-1894.524-1297.91l1.191 2.689-2.426 1.4-.058-.043 1.213-4.036z" transform="translate(-73.523 -101.309)"/>
    </g>
</svg>
